<svg viewBox="0 0 475 275" xmlns="http://www.w3.org/2000/svg">
 <metadata id="imagebot_63">image/svg+xml</metadata>

 <g id="imagebot_22">
  <g id="imagebot_23" transform="rotate(90.094 242.105 138.208) matrix(0.635074 0 0 0.635074 116.501 73.0549)">
   <path id="imagebot_62" d="m196.18625,-265.46632c-30.79,24.506 -267.46,229.9 -88.188,623.22l179.25,0c179.27,-393.32 -57.396,-598.68 -88.188,-623.19l-2.875,-0.0312l0.001,0.0012z" stroke-width="10" stroke="#000000" fill-rule="evenodd" fill="#ececec"/>
   <path id="imagebot_61" d="m203.60625,-10.81632c-37.293,0 -67.625,30.363 -67.625,67.656c0,37.293 30.332,67.625 67.625,67.625c37.293,0 67.656,-30.332 67.656,-67.625c0,-37.293 -30.363,-67.656 -67.656,-67.656zm0,8c32.965,0 59.656,26.692 59.656,59.656c0,32.965 -26.691,59.625 -59.656,59.625c-32.965,0 -59.625,-26.66 -59.625,-59.625c0.00003,-32.965 26.66,-59.656 59.625,-59.656z" stroke-linecap="round" stroke-width="8" fill="#cccccc"/>
   <g id="imagebot_43" fill-rule="evenodd">
    <g id="imagebot_54" stroke="#000000">
     <g id="imagebot_56" fill="#ff0000">
      <path id="imagebot_60" d="m76.83525,-103.98632l43.437,-79.802l60.609,-68.69l17.173,-13.132l64.65,67.68l50.508,81.822l4.0406,17.173l-241.43,-1.0102"/>
      <g id="imagebot_57" stroke-width="10">
       <path id="imagebot_59" d="m52.59125,200.07368c0,0 -107.08,-1.3336 -42.426,270.72c0,0 6.0609,-227.16 62.63,-199.15"/>
       <path id="imagebot_58" d="m342.96625,200.07368c0,0 107.08,-1.3336 42.426,270.72c0,0 -6.0609,-227.16 -62.63,-199.15"/>
      </g>
     </g>
     <path id="imagebot_55" d="m81.88625,302.09368l26.264,55.558l179.81,-1.0102l21.213,-54.548l-227.28,0l-0.007,0.0002z" fill="#b3b3b3"/>
    </g>
    <g id="imagebot_51" fill="#d20000">
     <path id="imagebot_53" d="m367.75625,227.34368l-20.203,50.508l-12.122,-10.102l-14.142,6.0609l19.193,-75.761l34.345,17.173c0,0 59.599,41.416 13.132,247.49c27.274,-213.14 -21.213,-235.37 -20.203,-235.37l0,0.0011z"/>
     <path id="imagebot_52" d="m7.13425,467.76368c0,0 -10.061,-220.37 58.589,-221.22c7.5756,-0.0943 7.071,24.244 7.071,24.244l-27.274,6.0609l-21.213,66.67l-17.173,124.25l0,-0.0049z"/>
    </g>
    <path id="imagebot_50" d="m243.28625,302.10368c4.0529,12.21 6.448,29.248 5.2812,53.531c0.86221,0.30377 1.7754,0.73004 2.7188,1.2188l36.656,-0.2188l17.094,-43.938c-0.68954,-3.7542 -1.4863,-7.1047 -2.25,-10.594l-59.5,0l0,0.001z" fill="#999999"/>
    <g id="imagebot_47" fill="#cccccc">
     <path id="imagebot_49" d="m217.26625,195.45368c-6.8185,-0.5051 -11.125,0.56247 -11.125,0.56247l-5.0625,77.781c0,0 24.335,-4.8055 35.812,28.312l59.625,0c-19.366,-90.309 -59.667,-105.21 -79.25,-106.66l0.0005,0.00453z"/>
     <path id="imagebot_48" d="m84.72625,306.62368l20,50l28,2l-8,-57l-40,5z"/>
    </g>
    <g id="imagebot_44" stroke-width="10" stroke="#000000" fill="none">
     <path id="imagebot_46" d="m196.18625,-265.46632c-30.79,24.506 -267.46,229.9 -88.188,623.22l179.25,0c179.27,-393.32 -57.396,-598.68 -88.188,-623.19l-2.875,-0.0312l0.001,0.0012z"/>
     <path id="imagebot_45" d="m76.83525,-101.96632l237.39,0"/>
    </g>
   </g>
   <g id="imagebot_36" stroke="#000000">
    <g id="imagebot_40" stroke-linecap="round">
     <path id="imagebot_42" d="m261.26625,50.83368a63.64,63.64 0 1 1 -127.28,0a63.64,63.64 0 1 1 127.28,0z" stroke-width="8" fill="#b3b3b3"/>
     <path id="imagebot_41" d="m239.04625,50.83368a41.416,41.416 0 1 1 -82.832,0a41.416,41.416 0 1 1 82.832,0z" stroke-width="12.293" fill="#80e5ff"/>
    </g>
    <g id="imagebot_37" stroke-width="10">
     <path id="imagebot_39" d="m84.91625,303.10368l224.25,0" fill="none"/>
     <path id="imagebot_38" d="m188.53625,198.05368l18.183,0l0,272.74l-18.183,0l0,-272.74z" stroke-linecap="round" fill="#ff0000"/>
    </g>
   </g>
   <path id="imagebot_35" d="m299.06625,289.97368c0,0 80.812,-185.87 16.162,-364.66c3.0305,317.19 -83.843,364.66 -83.843,364.66l67.68,0l0.001,0z" fill-rule="evenodd" fill="#cccccc"/>
   <g id="imagebot_32" stroke-linecap="round">
    <rect id="imagebot_34" transform="matrix(0.70389 0.7103 -0.70389 0.7103 0 0)" height="83.714" width="34.47" y="-147.03373" x="158.60111" stroke-width="10" fill="#ffffff"/>
    <path id="imagebot_33" d="m239.04625,50.83368a41.416,41.416 0 1 1 -82.832,0a41.416,41.416 0 1 1 82.832,0z" stroke-width="12.293" stroke="#000000" fill="none"/>
   </g>
   <g id="imagebot_24" fill-rule="evenodd">
    <path id="imagebot_31" d="m289.97625,-117.11632c0,0 -31.315,-81.822 -90.914,-125.26c54.548,105.06 26.264,125.26 26.264,125.26l64.65,0z" fill="#d20000"/>
    <g id="imagebot_28" stroke-width="10" stroke="#000000" fill="none">
     <path id="imagebot_30" d="m342.96625,200.07368c0,0 107.08,-1.3336 42.426,270.72c0,0 -6.0609,-227.16 -62.63,-199.15"/>
     <path id="imagebot_29" d="m52.59125,200.07368c0,0 -107.08,-1.3336 -42.426,270.72c0,0 6.0609,-227.16 62.63,-199.15"/>
    </g>
    <g id="imagebot_25" fill="#ffffff">
     <path id="imagebot_27" d="m90.97625,-120.14632c0,0 53.538,-104.05 97.985,-131.32c44.447,-27.274 -96.975,133.34 -97.985,131.32z"/>
     <path id="imagebot_26" d="m59.44325,156.33368c-3.1638,-1.7567 -22.724,-145.96 25.714,-235.71c29.867,-24.039 70.502,-11.397 68.571,-1.4286c-16.727,86.351 -75.47,247.59 -94.286,237.14l0.001,-0.0014z"/>
    </g>
   </g>
  </g>
  <title>imagebot_22</title>
 </g>
</svg>